<svg xmlns="http://www.w3.org/2000/svg" version="1.1" xmlns:xlink="http://www.w3.org/1999/xlink" xmlns:svgjs="http://svgjs.dev/svgjs" width="1440" height="560" preserveAspectRatio="none" viewBox="0 0 1440 560"><g mask="url(&quot;#SvgjsMask1042&quot;)" fill="none"><rect width="1440" height="560" x="0" y="0" fill="rgba(195, 29, 29, 1)"></rect><path d="M0,526.439C124.448,527.348,247.544,610.643,363.661,565.868C485.349,518.945,595.186,412.398,625.011,285.433C654.273,160.866,534.997,52.321,513.946,-73.894C493.607,-195.839,563.963,-328.761,504.495,-437.147C442.014,-551.023,323.028,-651.879,193.296,-658.307C63.719,-664.727,-23.159,-529.889,-137.701,-468.966C-224.2,-422.959,-332.651,-417.878,-397.239,-344.209C-461.965,-270.383,-463.144,-165.214,-487.417,-70.08C-514.895,37.615,-571.003,141.784,-549.036,250.737C-524.639,371.743,-470.579,505.188,-360.265,560.583C-250.238,615.834,-123.117,525.54,0,526.439" fill="#7f1313"></path><path d="M1440 996.366C1534.851 1009.409 1637.068 1043.196 1721.41 997.8820000000001 1806.811 951.999 1825.289 841.188 1879.022 760.495 1945.134 661.212 2089.823 587.074 2073.6620000000003 468.89300000000003 2057.532 350.935 1889.9270000000001 327.512 1808.002 241.125 1731.357 160.30599999999998 1712.93 23.35699999999997 1610.2359999999999-19.770999999999958 1506.346-63.400999999999954 1384.431-25.72199999999998 1281.438 19.986999999999966 1186.166 62.26999999999998 1128.243 152.211 1055.193 226.563 976.548 306.61 867.137 365.322 836.179 473.18399999999997 803.972 585.4 813.443 721.891 887.01 812.542 959.306 901.627 1095.417 890.585 1204.288 926.7760000000001 1283.636 953.153 1357.162 984.975 1440 996.366" fill="#e44a4a"></path></g><defs><mask id="SvgjsMask1042"><rect width="1440" height="560" fill="#ffffff"></rect></mask></defs></svg>